<?xml version="1.0" encoding="UTF-8"?>
<svg xmlns="http://www.w3.org/2000/svg" xmlns:xlink="http://www.w3.org/1999/xlink" width="375pt" height="374.999991pt" viewBox="0 0 375 374.999991" version="1.2">
<defs>
<clipPath id="clip1">
  <path d="M 8 12.5 L 366 12.5 L 366 362.75 L 8 362.75 Z M 8 12.5 "/>
</clipPath>
</defs>
<g id="surface1">
<g clip-path="url(#clip1)" clip-rule="nonzero">
<path style=" stroke:none;fill-rule:nonzero;fill:rgb(49.01886%,28.62854%,96.078491%);fill-opacity:1;" d="M 172.074219 12.5 C 81.761719 12.5 8.265625 86.007812 8.265625 176.328125 C 8.265625 263.339844 76.46875 334.636719 162.210938 339.777344 C 160.445312 344.347656 160.644531 349.488281 163.046875 353.902344 C 166.003906 359.351562 171.699219 362.75 177.917969 362.75 L 348.964844 362.75 C 355.1875 362.75 360.878906 359.351562 363.855469 353.902344 C 366.835938 348.429688 366.570312 341.789062 363.171875 336.558594 L 313.085938 259.367188 C 327.496094 234.980469 335.878906 206.648438 335.878906 176.328125 C 335.878906 86.007812 262.382812 12.5 172.074219 12.5 Z M 172.074219 23.800781 C 256.160156 23.800781 324.582031 92.230469 324.582031 176.328125 C 324.582031 202.519531 317.851562 227.148438 306.160156 248.707031 L 291.683594 226.421875 C 311.386719 179.242188 302.253906 122.769531 263.949219 84.441406 C 260.21875 80.734375 256.25 77.203125 252.121094 73.957031 C 249.652344 72.039062 246.097656 72.480469 244.179688 74.929688 C 242.261719 77.378906 242.679688 80.929688 245.148438 82.851562 C 248.921875 85.808594 252.5625 89.03125 255.941406 92.429688 C 288.992188 125.484375 298.371094 173.328125 284.183594 214.835938 L 277.652344 204.773438 C 274.519531 199.960938 269.222656 197.070312 263.441406 197.070312 C 257.683594 197.070312 252.367188 199.960938 249.230469 204.773438 L 191.929688 293.085938 C 169.535156 296.945312 145.792969 294.5625 123.53125 284.566406 C 63.847656 257.820312 37.082031 187.472656 63.824219 127.78125 C 85.777344 78.835938 138.003906 50.609375 190.9375 59.171875 C 194.003906 59.679688 196.894531 57.585938 197.402344 54.496094 C 197.886719 51.40625 195.792969 48.515625 192.726562 48.027344 C 134.828125 38.671875 77.570312 69.566406 53.542969 123.167969 C 24.21875 188.53125 53.5625 265.566406 118.917969 294.871094 C 136.128906 302.597656 154.132812 306.257812 171.894531 306.257812 C 175.867188 306.257812 179.839844 305.996094 183.789062 305.640625 L 168.761719 328.769531 C 86.199219 327.003906 19.5625 259.324219 19.5625 176.328125 C 19.5625 92.230469 87.984375 23.800781 172.074219 23.800781 Z M 215.320312 54.230469 C 213.132812 54.320312 211.105469 55.707031 210.289062 57.894531 C 209.183594 60.828125 210.664062 64.070312 213.597656 65.175781 C 217.613281 66.675781 221.585938 68.398438 225.46875 70.339844 C 226.285156 70.757812 227.144531 70.957031 228.007812 70.957031 C 230.058594 70.957031 232.042969 69.832031 233.058594 67.84375 C 234.449219 65.085938 233.324219 61.667969 230.542969 60.253906 C 226.328125 58.136719 221.9375 56.214844 217.546875 54.5625 C 216.820312 54.296875 216.070312 54.207031 215.320312 54.230469 Z M 172.074219 80.292969 C 168.9375 80.292969 166.425781 82.808594 166.425781 85.941406 L 166.425781 97.238281 C 166.425781 100.371094 168.9375 102.886719 172.074219 102.886719 C 175.207031 102.886719 177.722656 100.371094 177.722656 97.238281 L 177.722656 85.941406 C 177.722656 82.808594 175.207031 80.292969 172.074219 80.292969 Z M 205.851562 86.890625 C 203.648438 86.910156 201.574219 88.234375 200.691406 90.398438 L 196.453125 100.878906 C 195.285156 103.769531 196.675781 107.058594 199.585938 108.226562 C 200.269531 108.515625 201 108.648438 201.707031 108.648438 C 203.933594 108.648438 206.050781 107.324219 206.933594 105.117188 L 211.171875 94.636719 C 212.339844 91.746094 210.949219 88.457031 208.058594 87.285156 C 207.332031 87 206.582031 86.867188 205.851562 86.890625 Z M 234.757812 105.648438 C 233.300781 105.691406 231.867188 106.265625 230.785156 107.390625 L 222.929688 115.511719 C 220.769531 117.761719 220.835938 121.335938 223.085938 123.5 C 224.1875 124.558594 225.578125 125.085938 226.992188 125.085938 C 228.492188 125.085938 229.96875 124.492188 231.074219 123.367188 L 238.90625 115.222656 C 241.089844 112.972656 241.023438 109.398438 238.773438 107.234375 C 237.648438 106.152344 236.214844 105.625 234.757812 105.648438 Z M 172.074219 114.1875 C 168.9375 114.1875 166.425781 116.703125 166.425781 119.835938 L 166.425781 166.597656 C 163.070312 168.558594 160.777344 172.15625 160.777344 176.328125 C 160.777344 182.550781 165.851562 187.625 172.074219 187.625 C 173.085938 187.625 174.035156 187.449219 174.964844 187.207031 L 210.441406 222.691406 C 211.546875 223.792969 212.980469 224.347656 214.4375 224.347656 C 215.894531 224.347656 217.328125 223.792969 218.429688 222.691406 C 220.636719 220.484375 220.636719 216.910156 218.429688 214.703125 L 182.949219 179.21875 C 183.191406 178.292969 183.371094 177.34375 183.371094 176.328125 C 183.371094 172.15625 181.074219 168.558594 177.722656 166.597656 L 177.722656 119.835938 C 177.722656 116.703125 175.207031 114.1875 172.074219 114.1875 Z M 254.527344 133.914062 C 253.800781 133.9375 253.050781 134.089844 252.34375 134.398438 L 242.039062 138.988281 C 239.171875 140.269531 237.890625 143.601562 239.148438 146.472656 C 240.097656 148.566406 242.148438 149.824219 244.332031 149.824219 C 245.085938 149.824219 245.855469 149.648438 246.605469 149.316406 L 256.933594 144.726562 C 259.777344 143.449219 261.058594 140.136719 259.800781 137.289062 C 258.851562 135.152344 256.734375 133.871094 254.527344 133.914062 Z M 81.695312 170.679688 C 78.5625 170.679688 76.046875 173.195312 76.046875 176.328125 C 76.046875 179.460938 78.5625 181.976562 81.695312 181.976562 L 92.992188 181.976562 C 96.125 181.976562 98.640625 179.460938 98.640625 176.328125 C 98.640625 173.195312 96.125 170.679688 92.992188 170.679688 Z M 251.152344 170.679688 C 248.019531 170.679688 245.503906 173.195312 245.503906 176.328125 C 245.503906 179.460938 248.019531 181.976562 251.152344 181.976562 L 262.449219 181.976562 C 265.582031 181.976562 268.097656 179.460938 268.097656 176.328125 C 268.097656 173.195312 265.582031 170.679688 262.449219 170.679688 Z M 263.441406 208.390625 C 265.40625 208.390625 267.125 209.316406 268.1875 210.949219 L 353.707031 342.714844 C 355.339844 345.25 354.414062 347.613281 353.929688 348.519531 C 353.441406 349.402344 351.988281 351.453125 348.964844 351.453125 L 177.917969 351.453125 C 174.898438 351.453125 173.441406 349.402344 172.957031 348.519531 C 172.46875 347.613281 171.519531 345.273438 173.175781 342.734375 L 258.71875 210.949219 C 259.777344 209.339844 261.5 208.390625 263.441406 208.390625 Z M 262.207031 244.292969 C 259.25 244.292969 256.292969 245.398438 254.242188 247.605469 C 252.1875 249.832031 251.152344 252.835938 251.417969 256.035156 L 256.625 301.25 C 256.933594 304.097656 259.359375 306.257812 262.226562 306.257812 C 265.097656 306.257812 267.5 304.097656 267.832031 301.25 L 273.0625 255.835938 C 273.304688 252.835938 272.246094 249.832031 270.214844 247.605469 C 268.140625 245.398438 265.183594 244.292969 262.207031 244.292969 Z M 172.074219 249.765625 C 168.9375 249.765625 166.425781 252.28125 166.425781 255.417969 L 166.425781 266.714844 C 166.425781 269.847656 168.9375 272.363281 172.074219 272.363281 C 175.207031 272.363281 177.722656 269.847656 177.722656 266.714844 L 177.722656 255.417969 C 177.722656 252.28125 175.207031 249.765625 172.074219 249.765625 Z M 262.449219 311.910156 C 256.203125 311.910156 251.152344 316.960938 251.152344 323.207031 C 251.152344 329.453125 256.203125 334.503906 262.449219 334.503906 C 268.691406 334.503906 273.746094 329.453125 273.746094 323.207031 C 273.746094 316.960938 268.691406 311.910156 262.449219 311.910156 Z M 262.449219 311.910156 "/>
</g>
</g>
</svg>
