<?xml version="1.0" encoding="UTF-8"?>
<svg xmlns="http://www.w3.org/2000/svg" xmlns:xlink="http://www.w3.org/1999/xlink" width="375pt" height="374.999991pt" viewBox="0 0 375 374.999991" version="1.2">
<g id="surface1">
<path style=" stroke:none;fill-rule:nonzero;fill:rgb(49.01886%,28.62854%,96.078491%);fill-opacity:1;" d="M 346.875 112.5 L 28.125 112.5 C 27.203125 112.5 26.285156 112.546875 25.367188 112.636719 C 24.453125 112.726562 23.542969 112.859375 22.636719 113.039062 C 21.734375 113.21875 20.84375 113.445312 19.960938 113.710938 C 19.078125 113.976562 18.214844 114.289062 17.363281 114.640625 C 16.511719 114.992188 15.679688 115.386719 14.867188 115.820312 C 14.054688 116.253906 13.265625 116.726562 12.5 117.238281 C 11.734375 117.75 10.996094 118.300781 10.28125 118.882812 C 9.570312 119.46875 8.890625 120.085938 8.238281 120.738281 C 7.585938 121.390625 6.96875 122.070312 6.382812 122.78125 C 5.800781 123.496094 5.25 124.234375 4.738281 125 C 4.226562 125.765625 3.753906 126.554688 3.320312 127.367188 C 2.886719 128.179688 2.492188 129.011719 2.140625 129.863281 C 1.789062 130.714844 1.476562 131.578125 1.210938 132.460938 C 0.945312 133.34375 0.71875 134.234375 0.539062 135.136719 C 0.359375 136.042969 0.226562 136.953125 0.136719 137.867188 C 0.046875 138.785156 0 139.703125 0 140.625 L 0 215.625 C 0 216.546875 0.046875 217.464844 0.136719 218.382812 C 0.226562 219.296875 0.359375 220.207031 0.539062 221.113281 C 0.71875 222.015625 0.945312 222.90625 1.210938 223.789062 C 1.476562 224.671875 1.789062 225.535156 2.140625 226.386719 C 2.492188 227.238281 2.886719 228.070312 3.320312 228.882812 C 3.753906 229.695312 4.226562 230.484375 4.738281 231.25 C 5.25 232.015625 5.800781 232.753906 6.382812 233.46875 C 6.96875 234.179688 7.585938 234.859375 8.238281 235.511719 C 8.890625 236.164062 9.570312 236.78125 10.28125 237.367188 C 10.996094 237.949219 11.734375 238.5 12.5 239.011719 C 13.265625 239.523438 14.054688 239.996094 14.867188 240.429688 C 15.679688 240.863281 16.511719 241.257812 17.363281 241.609375 C 18.214844 241.960938 19.078125 242.273438 19.960938 242.539062 C 20.84375 242.804688 21.734375 243.03125 22.636719 243.210938 C 23.542969 243.390625 24.453125 243.523438 25.367188 243.613281 C 26.285156 243.703125 27.203125 243.75 28.125 243.75 L 140.625 243.75 C 142.023438 243.746094 143.359375 243.445312 144.625 242.851562 C 145.890625 242.253906 146.972656 241.417969 147.871094 240.339844 L 187.5 192.785156 L 227.128906 240.339844 C 228.027344 241.417969 229.109375 242.253906 230.375 242.851562 C 231.640625 243.445312 232.976562 243.746094 234.375 243.75 L 346.875 243.75 C 347.796875 243.75 348.714844 243.703125 349.632812 243.613281 C 350.546875 243.523438 351.457031 243.390625 352.363281 243.210938 C 353.265625 243.03125 354.15625 242.804688 355.039062 242.539062 C 355.921875 242.273438 356.785156 241.960938 357.636719 241.609375 C 358.488281 241.257812 359.320312 240.863281 360.132812 240.429688 C 360.945312 239.996094 361.734375 239.523438 362.5 239.011719 C 363.265625 238.5 364.003906 237.949219 364.71875 237.367188 C 365.429688 236.78125 366.109375 236.164062 366.761719 235.511719 C 367.414062 234.859375 368.03125 234.179688 368.617188 233.46875 C 369.199219 232.753906 369.75 232.015625 370.261719 231.25 C 370.773438 230.484375 371.246094 229.695312 371.679688 228.882812 C 372.113281 228.070312 372.507812 227.238281 372.859375 226.386719 C 373.210938 225.535156 373.523438 224.671875 373.789062 223.789062 C 374.054688 222.90625 374.28125 222.015625 374.460938 221.113281 C 374.640625 220.207031 374.773438 219.296875 374.863281 218.382812 C 374.953125 217.464844 375 216.546875 375 215.625 L 375 140.625 C 375 139.703125 374.953125 138.785156 374.863281 137.867188 C 374.773438 136.953125 374.640625 136.042969 374.460938 135.136719 C 374.28125 134.234375 374.054688 133.34375 373.789062 132.460938 C 373.523438 131.578125 373.210938 130.714844 372.859375 129.863281 C 372.507812 129.011719 372.113281 128.179688 371.679688 127.367188 C 371.246094 126.554688 370.773438 125.765625 370.261719 125 C 369.75 124.234375 369.199219 123.496094 368.617188 122.78125 C 368.03125 122.070312 367.414062 121.390625 366.761719 120.738281 C 366.109375 120.085938 365.429688 119.46875 364.71875 118.882812 C 364.003906 118.300781 363.265625 117.75 362.5 117.238281 C 361.734375 116.726562 360.945312 116.253906 360.132812 115.820312 C 359.320312 115.386719 358.488281 114.992188 357.636719 114.640625 C 356.785156 114.289062 355.921875 113.976562 355.039062 113.710938 C 354.15625 113.445312 353.265625 113.21875 352.363281 113.039062 C 351.457031 112.859375 350.546875 112.726562 349.632812 112.636719 C 348.714844 112.546875 347.796875 112.5 346.875 112.5 Z M 346.875 112.5 "/>
<path style=" stroke:none;fill-rule:nonzero;fill:rgb(49.01886%,28.62854%,96.078491%);fill-opacity:1;" d="M 212.8125 252.441406 L 187.5 222.101562 L 162.273438 252.359375 C 160.949219 253.945312 159.46875 255.367188 157.835938 256.628906 C 156.199219 257.890625 154.445312 258.960938 152.578125 259.835938 C 150.707031 260.710938 148.761719 261.375 146.746094 261.824219 C 144.730469 262.273438 142.691406 262.5 140.625 262.5 L 41.335938 262.5 C 69.035156 320.453125 122.128906 375 187.5 375 C 252.871094 375 305.964844 320.453125 333.664062 262.5 L 234.375 262.5 C 232.320312 262.503906 230.289062 262.285156 228.28125 261.839844 C 226.273438 261.398438 224.335938 260.742188 222.472656 259.871094 C 220.609375 259.003906 218.863281 257.941406 217.234375 256.6875 C 215.605469 255.4375 214.132812 254.019531 212.8125 252.441406 Z M 230.625 316.875 C 216.5625 327.441406 201.988281 332.726562 187.5 332.726562 C 173.011719 332.726562 158.4375 327.441406 144.375 316.875 C 143.882812 316.503906 143.429688 316.089844 143.019531 315.632812 C 142.609375 315.175781 142.246094 314.679688 141.933594 314.152344 C 141.621094 313.621094 141.359375 313.066406 141.15625 312.484375 C 140.953125 311.90625 140.804688 311.308594 140.71875 310.699219 C 140.632812 310.089844 140.605469 309.480469 140.640625 308.863281 C 140.671875 308.25 140.765625 307.644531 140.917969 307.046875 C 141.070312 306.453125 141.28125 305.875 141.546875 305.320312 C 141.8125 304.765625 142.128906 304.242188 142.5 303.75 C 142.871094 303.257812 143.28125 302.804688 143.742188 302.394531 C 144.199219 301.984375 144.695312 301.621094 145.222656 301.308594 C 145.753906 300.996094 146.308594 300.734375 146.890625 300.53125 C 147.46875 300.328125 148.066406 300.179688 148.675781 300.09375 C 149.285156 300.007812 149.894531 299.980469 150.511719 300.015625 C 151.125 300.046875 151.730469 300.140625 152.328125 300.292969 C 152.921875 300.445312 153.5 300.65625 154.054688 300.921875 C 154.609375 301.1875 155.132812 301.503906 155.625 301.875 C 177.359375 318.152344 197.640625 318.152344 219.375 301.875 C 219.867188 301.507812 220.390625 301.1875 220.945312 300.921875 C 221.5 300.65625 222.078125 300.449219 222.671875 300.296875 C 223.269531 300.144531 223.875 300.050781 224.488281 300.019531 C 225.101562 299.984375 225.714844 300.011719 226.324219 300.097656 C 226.933594 300.1875 227.527344 300.332031 228.105469 300.535156 C 228.6875 300.742188 229.242188 301 229.773438 301.3125 C 230.300781 301.628906 230.792969 301.988281 231.253906 302.398438 C 231.710938 302.8125 232.125 303.261719 232.492188 303.753906 C 232.863281 304.246094 233.179688 304.769531 233.445312 305.324219 C 233.710938 305.878906 233.921875 306.457031 234.074219 307.050781 C 234.226562 307.648438 234.320312 308.253906 234.355469 308.867188 C 234.386719 309.480469 234.363281 310.09375 234.273438 310.703125 C 234.1875 311.3125 234.042969 311.90625 233.839844 312.484375 C 233.636719 313.066406 233.375 313.621094 233.0625 314.152344 C 232.75 314.679688 232.390625 315.175781 231.976562 315.632812 C 231.566406 316.089844 231.117188 316.503906 230.625 316.875 Z M 230.625 316.875 "/>
<path style=" stroke:none;fill-rule:nonzero;fill:rgb(49.01886%,28.62854%,96.078491%);fill-opacity:1;" d="M 187.5 0 C 123.578125 0 65.285156 36.734375 36.816406 93.75 L 338.183594 93.75 C 309.714844 36.734375 251.421875 0 187.5 0 Z M 187.5 0 "/>
</g>
</svg>
